<?xml version="1.0" encoding="utf-8"?>
<!-- Generator: Adobe Illustrator 24.0.2, SVG Export Plug-In . SVG Version: 6.00 Build 0)  -->
<svg version="1.1" id="Layer_1" xmlns="http://www.w3.org/2000/svg" xmlns:xlink="http://www.w3.org/1999/xlink" x="0px" y="0px"
	 viewBox="0 0 1920 160" style="enable-background:new 0 0 1920 160;" xml:space="preserve">
<style type="text/css">
	.st0{clip-path:url(#SVGID_2_);}
	.st1{fill:#F25D27;}
	.st2{fill:none;}
	.st3{fill:#FF6F1C;}
	.st4{fill:#F25C05;}
</style>
<g>
	<defs>
		<rect id="SVGID_1_" width="1920" height="160"/>
	</defs>
	<clipPath id="SVGID_2_">
		<use xlink:href="#SVGID_1_"  style="overflow:visible;"/>
	</clipPath>
	<g class="st0">
		<rect x="-180" y="-162" class="st1" width="2108" height="1168"/>
		<g transform="translate(-443.25 -140.389)">
			<rect x="0.3" y="-0.6" class="st2" width="2415" height="876"/>
			<g transform="translate(-167.986 49.518)">
				<path class="st3" d="M122.3,222.7l331.4,86.9c37,9.7,78.4,0.6,101.5-22.3l167.7-166.5c26.1-25.9,75.3-33.7,114.3-18l223.6,89.9
					c23,9.2,50.5,10.6,75.1,3.7l252.6-70.9c21.9-6,45.1-5.8,66.8,0.8l564.3,174.3c31.3,9.7,67.6,5.5,93.2-10.7l430.7-274.1
					C2585.1-10.6,2650.3-3,2678,31.7l22.7,28.4c17,21.3,15.2,47.7-4.6,67.7l-504.8,508.2c-25,25.2-72,33.6-110.7,19.9l-225.3-80.1
					c-24.1-8.3-50.2-8.7-74.6-1.2l-305.7,96.8c-23.7,7.3-49,7.2-72.6-0.5L935.1,514.9c-19.4-6.3-40.2-7.6-60.2-3.7l-244.4,47.8
					c-21.9,4.3-45.3,2.3-65.2-5.5L45.8,350.9C11.6,337.5-6.3,309.6,2,282.4l4.2-13.9C17.5,231.1,72.2,209.6,122.3,222.7"/>
				<path class="st4" d="M2216.1,117.4c-9.8,1.4-19.3,4.1-28.3,8.1l-337.6,149.8c-24.4,10.8-54.7,12.4-81.1,4.3l-239.4-74.1
					c-27.1-8.4-58.3-6.5-83,5.1l-289.6,136c-27.1,12.7-61.9,13.7-90.3,2.6L603.3,167.6c-22.9-9-50.1-10.2-74.4-3.3L106.9,283.5
					c-30.2,8.5-51.4,28.3-55,51.4l-1.4,9c-5.4,33.8,27.8,64.6,74.9,69.3l476.1,48.4c14.4,1.3,28.4,5.6,41.2,12.4l275.6,151.7
					c26.4,14.5,62.1,17.1,92.1,6.7l366.8-128.2c25.7-9,55.9-8.4,80.9,1.4l306.7,121.1c39.5,15.6,89,7.2,114.7-19.3l230-238.1
					c18.5-19.2,50.3-29.4,82.6-26.7l433.9,36.8c48.8,4.1,92.9-21.2,97.7-56.3l27.8-202.3c5.8-42.3-47.3-76.4-105.4-67.7
					L2216.1,117.4z"/>
			</g>
		</g>
	</g>
</g>
</svg>
